<?xml version="1.0" standalone="no"?>
<!DOCTYPE svg PUBLIC "-//W3C//DTD SVG 20010904//EN"
 "http://www.w3.org/TR/2001/REC-SVG-20010904/DTD/svg10.dtd">
<svg version="1.0" xmlns="http://www.w3.org/2000/svg"
 width="768.000000pt" height="768.000000pt" viewBox="0 0 768.000000 768.000000"
 preserveAspectRatio="xMidYMid meet">
<metadata>
Created by potrace 1.11, written by Peter Selinger 2001-2013
</metadata>
<g transform="translate(0.000000,768.000000) scale(0.100000,-0.100000)"
fill="#000000" stroke="none">
<path d="M0 3840 l0 -3840 575 0 575 0 0 770 0 770 189 0 c188 0 189 0 193 22
2 13 3 98 2 191 l-1 167 194 0 193 0 0 195 0 195 -190 0 -190 0 0 188 0 187
190 0 190 0 0 193 0 192 385 0 385 0 0 385 0 385 -197 0 -196 0 6 878 c4 482
7 1000 7 1150 l0 272 190 0 190 0 0 195 0 195 190 0 190 0 0 190 0 190 1345 0
1345 0 0 -190 0 -190 190 0 190 0 0 -385 0 -385 -190 0 -190 0 0 -384 0 -384
-1537 1 -1538 2 0 -195 0 -195 380 0 380 0 3 -382 2 -383 770 0 770 0 1 33 c0
17 1 183 1 367 1 184 3 342 5 351 4 13 29 15 186 15 l182 -1 3 -382 2 -383
195 0 195 0 0 -385 0 -385 -190 0 -190 0 0 -190 0 -190 -195 0 -195 0 0 -185
c0 -169 -5 -207 -25 -175 -3 6 -12 10 -18 10 -7 0 1 -9 17 -19 31 -21 -9 -19
549 -20 l247 -1 0 -190 0 -190 194 0 194 0 -2 -190 -2 -190 193 0 193 0 0
-770 0 -770 575 0 575 0 0 3840 0 3840 -3840 0 -3840 0 0 -3840z"/>
<path d="M2680 3046 c0 -8 4 -17 9 -20 5 -4 7 3 4 14 -6 23 -13 26 -13 6z"/>
<path d="M2693 2933 c-15 -5 -17 -23 -4 -23 5 0 11 7 15 15 3 8 4 15 3 14 -1
0 -8 -3 -14 -6z"/>
<path d="M2715 2910 c-3 -5 -1 -10 4 -10 6 0 11 5 11 10 0 6 -2 10 -4 10 -3 0
-8 -4 -11 -10z"/>
<path d="M2691 2868 c-5 -13 -5 -24 0 -26 5 -2 6 -9 2 -15 -19 -31 -2 -61 20
-38 9 9 7 11 -8 6 -20 -7 -20 -6 -1 9 13 10 15 16 7 16 -11 0 -11 3 0 17 12
14 12 16 0 8 -11 -6 -13 -3 -7 19 8 32 -1 35 -13 4z"/>
<path d="M2684 2728 c-5 -7 -2 -8 6 -3 10 6 12 3 8 -13 -4 -14 -2 -19 8 -15 7
2 10 11 8 18 -4 9 0 12 14 8 11 -2 22 -1 25 4 3 4 -10 9 -29 10 -18 1 -37 -3
-40 -9z"/>
<path d="M2790 2711 c0 -5 -9 -8 -20 -6 -11 2 -20 0 -20 -6 0 -5 14 -8 30 -7
30 2 38 12 20 23 -5 3 -10 2 -10 -4z"/>
<path d="M2983 2707 c0 -7 11 -13 28 -12 15 0 25 4 22 8 -3 5 -11 6 -18 3 -7
-2 -17 0 -22 5 -6 6 -10 5 -10 -4z"/>
<path d="M3055 2709 c-4 -6 -4 -13 -1 -16 3 -4 6 -1 6 6 0 7 5 9 12 5 7 -4 8
-3 4 4 -9 15 -13 15 -21 1z"/>
<path d="M3130 2705 c-17 -10 -20 -14 -9 -15 9 0 22 7 29 15 15 18 12 18 -20
0z"/>
<path d="M3295 2710 c-3 -5 -12 -7 -19 -4 -8 3 -16 1 -20 -4 -8 -14 27 -11 49
4 11 8 14 14 8 14 -7 0 -14 -4 -18 -10z"/>
<path d="M3347 2707 c-3 -8 0 -14 7 -14 7 0 13 6 13 14 0 7 -4 13 -8 13 -4 0
-9 -6 -12 -13z"/>
<path d="M3165 2700 c-3 -6 1 -7 9 -4 18 7 21 14 7 14 -6 0 -13 -4 -16 -10z"/>
<path d="M3410 2698 c0 -4 4 -8 9 -8 6 0 12 4 15 8 3 5 -1 9 -9 9 -8 0 -15 -4
-15 -9z"/>
<path d="M3460 2506 c0 -2 8 -10 18 -17 15 -13 16 -12 3 4 -13 16 -21 21 -21
13z"/>
<path d="M3460 2434 c0 -8 5 -12 10 -9 6 4 8 11 5 16 -9 14 -15 11 -15 -7z"/>
<path d="M3470 2398 c-12 -8 -12 -9 2 -5 9 3 19 1 22 -6 3 -9 5 -9 5 0 1 18
-13 23 -29 11z"/>
<path d="M4175 2360 c-3 -5 -1 -10 4 -10 6 0 11 5 11 10 0 6 -2 10 -4 10 -3 0
-8 -4 -11 -10z"/>
<path d="M4290 2359 c0 -5 5 -7 10 -4 6 3 10 8 10 11 0 2 -4 4 -10 4 -5 0 -10
-5 -10 -11z"/>
<path d="M4321 2356 c3 -27 -2 -35 -23 -33 -11 1 -23 9 -26 19 -5 20 -17 23
-27 8 -4 -6 -14 -9 -23 -8 -9 2 -17 -3 -17 -11 0 -8 -10 -16 -23 -18 -13 -1
-21 1 -18 6 3 5 0 11 -8 14 -8 3 -17 -1 -20 -9 -6 -16 -56 -19 -56 -3 0 5 -5
7 -11 3 -6 -3 -29 -8 -50 -9 -28 -3 -42 1 -49 13 -8 15 -9 15 -10 1 0 -12 -12
-16 -57 -17 -32 0 -60 -1 -63 -1 -3 -1 -4 -521 -2 -1156 l2 -1155 385 0 385 0
0 1150 c0 913 3 1150 13 1150 6 0 4 5 -6 11 -9 5 -22 7 -27 4 -6 -4 -7 1 -3
12 6 16 5 17 -12 3 -14 -11 -17 -12 -11 -1 6 9 5 12 -5 9 -8 -3 -13 -11 -11
-17 4 -20 -15 -12 -32 14 -17 27 -36 25 -36 -2 0 -13 3 -13 15 -3 13 11 14 10
9 -4 -7 -17 -27 -20 -59 -6 -18 8 -18 9 -2 9 10 1 15 6 12 11 -4 7 -12 7 -24
0 -10 -5 -22 -6 -26 -2 -5 4 -5 -1 -2 -10 4 -12 2 -15 -9 -11 -7 3 -14 9 -14
15 0 5 -4 7 -9 4 -10 -6 -34 18 -26 26 3 2 -2 5 -10 5 -8 0 -15 -5 -14 -11z
m-77 -30 c-10 -8 -21 -12 -23 -10 -3 2 4 11 15 18 10 8 21 12 23 10 3 -2 -4
-11 -15 -18z m101 4 c3 -5 1 -10 -4 -10 -6 0 -11 5 -11 10 0 6 2 10 4 10 3 0
8 -4 11 -10z"/>
<path d="M3471 2340 c-16 -9 -8 -40 10 -40 9 0 9 3 0 14 -9 11 -9 15 1 19 7 2
11 7 8 10 -3 3 -12 2 -19 -3z"/>
<path d="M3594 2332 c-9 -5 -8 -10 1 -19 11 -10 13 -9 12 7 -1 11 -1 20 -2 20
0 0 -5 -4 -11 -8z"/>
<path d="M3885 2330 c-3 -5 1 -10 9 -10 9 0 16 5 16 10 0 6 -4 10 -9 10 -6 0
-13 -4 -16 -10z"/>
<path d="M4845 2330 c-3 -5 1 -10 9 -10 9 0 16 5 16 10 0 6 -4 10 -9 10 -6 0
-13 -4 -16 -10z"/>
<path d="M4906 2329 c2 -4 -2 -10 -8 -12 -7 -3 -1 -6 14 -6 19 -1 26 3 22 12
-3 8 -11 14 -19 14 -8 0 -12 -4 -9 -8z"/>
<path d="M3785 2319 c-4 -6 -4 -13 -1 -16 3 -4 6 -1 6 6 0 8 6 11 16 7 8 -3
12 -2 9 4 -8 13 -22 13 -30 -1z"/>
<path d="M4745 2319 c-4 -6 -4 -13 -1 -16 3 -4 6 -1 6 6 0 8 6 11 16 7 8 -3
12 -2 9 4 -8 13 -22 13 -30 -1z"/>
<path d="M2820 1580 c-8 -5 -12 -12 -9 -15 4 -3 12 1 19 10 14 17 11 19 -10 5z"/>
<path d="M5690 1569 c0 -5 5 -7 10 -4 6 3 10 8 10 11 0 2 -4 4 -10 4 -5 0 -10
-5 -10 -11z"/>
<path d="M2950 1549 c0 -5 5 -7 10 -4 6 3 10 8 10 11 0 2 -4 4 -10 4 -5 0 -10
-5 -10 -11z"/>
<path d="M5510 1550 c0 -5 9 -8 20 -7 21 1 18 10 -5 13 -8 1 -15 -2 -15 -6z"/>
<path d="M2868 1543 c7 -3 16 -2 19 1 4 3 -2 6 -13 5 -11 0 -14 -3 -6 -6z"/>
<path d="M5760 1519 c0 -5 5 -7 10 -4 6 3 10 8 10 11 0 2 -4 4 -10 4 -5 0 -10
-5 -10 -11z"/>
<path d="M2665 1470 c3 -5 8 -10 11 -10 2 0 4 5 4 10 0 6 -5 10 -11 10 -5 0
-7 -4 -4 -10z"/>
<path d="M5766 1442 c-3 -5 1 -9 9 -9 8 0 12 4 9 9 -3 4 -7 8 -9 8 -2 0 -6 -4
-9 -8z"/>
<path d="M2666 1247 c3 -10 9 -15 12 -12 3 3 0 11 -7 18 -10 9 -11 8 -5 -6z"/>
<path d="M5350 1241 c0 -12 5 -21 10 -21 6 0 10 6 10 14 0 8 -4 18 -10 21 -5
3 -10 -3 -10 -14z"/>
<path d="M5766 1245 c4 -8 11 -15 16 -15 6 0 5 6 -2 15 -7 8 -14 15 -16 15 -2
0 -1 -7 2 -15z"/>
<path d="M3089 1233 c-13 -16 -12 -17 4 -4 9 7 17 15 17 17 0 8 -8 3 -21 -13z"/>
<path d="M5760 1155 c0 -8 2 -15 4 -15 2 0 6 7 10 15 3 8 1 15 -4 15 -6 0 -10
-7 -10 -15z"/>
<path d="M3083 987 c0 -8 6 -14 14 -14 9 0 10 4 2 14 -6 7 -12 13 -14 13 -1 0
-2 -6 -2 -13z"/>
<path d="M5353 963 c4 -3 1 -13 -6 -22 -11 -14 -10 -14 5 -2 16 12 16 31 1 31
-4 0 -3 -3 0 -7z"/>
<path d="M5760 955 c0 -2 6 -8 13 -14 10 -8 14 -7 14 2 0 8 -6 14 -14 14 -7 0
-13 -1 -13 -2z"/>
<path d="M3085 930 c3 -5 8 -10 11 -10 2 0 4 5 4 10 0 6 -5 10 -11 10 -5 0 -7
-4 -4 -10z"/>
<path d="M5770 911 c0 -6 4 -13 10 -16 6 -3 7 1 4 9 -7 18 -14 21 -14 7z"/>
<path d="M5356 885 c-9 -26 -7 -32 5 -12 6 10 9 21 6 23 -2 3 -7 -2 -11 -11z"/>
<path d="M5760 871 c0 -6 5 -13 10 -16 6 -3 10 1 10 9 0 9 -4 16 -10 16 -5 0
-10 -4 -10 -9z"/>
<path d="M5765 831 c-3 -5 0 -13 6 -17 7 -4 9 -3 5 4 -3 5 0 13 6 15 9 4 10 6
1 6 -6 1 -14 -3 -18 -8z"/>
<path d="M3096 718 c3 -5 10 -6 15 -3 13 9 11 12 -6 12 -8 0 -12 -4 -9 -9z"/>
<path d="M5765 710 c-3 -5 -2 -10 4 -10 5 0 13 5 16 10 3 6 2 10 -4 10 -5 0
-13 -4 -16 -10z"/>
<path d="M3083 613 c0 -15 2 -20 7 -13 6 9 9 9 13 -1 4 -11 6 -11 6 -1 1 7 -5
20 -13 27 -11 12 -13 10 -13 -12z"/>
<path d="M5362 610 c0 -14 2 -19 5 -12 2 6 2 18 0 25 -3 6 -5 1 -5 -13z"/>
<path d="M5761 594 c0 -11 3 -14 6 -6 3 7 2 16 -1 19 -3 4 -6 -2 -5 -13z"/>
<path d="M2655 582 c-5 -4 -12 -16 -13 -27 -3 -16 -1 -18 9 -8 7 7 14 20 15
28 3 17 2 17 -11 7z"/>
<path d="M5760 560 c0 -5 5 -10 10 -10 6 0 10 5 10 10 0 6 -4 10 -10 10 -5 0
-10 -4 -10 -10z"/>
<path d="M2665 510 c3 -5 8 -10 11 -10 2 0 4 5 4 10 0 6 -5 10 -11 10 -5 0 -7
-4 -4 -10z"/>
<path d="M5766 482 c-3 -5 1 -9 9 -9 8 0 12 4 9 9 -3 4 -7 8 -9 8 -2 0 -6 -4
-9 -8z"/>
<path d="M2666 287 c3 -10 9 -15 12 -12 3 3 0 11 -7 18 -10 9 -11 8 -5 -6z"/>
<path d="M5350 281 c0 -12 5 -21 10 -21 6 0 10 6 10 14 0 8 -4 18 -10 21 -5 3
-10 -3 -10 -14z"/>
<path d="M5766 285 c4 -8 11 -15 16 -15 6 0 5 6 -2 15 -7 8 -14 15 -16 15 -2
0 -1 -7 2 -15z"/>
<path d="M3089 273 c-13 -16 -12 -17 4 -4 16 13 21 21 13 21 -2 0 -10 -8 -17
-17z"/>
<path d="M5760 195 c0 -8 2 -15 4 -15 2 0 6 7 10 15 3 8 1 15 -4 15 -6 0 -10
-7 -10 -15z"/>
</g>
</svg>
